<?xml version="1.0" encoding="UTF-8"?>
<svg version="1.1" xmlns="http://www.w3.org/2000/svg" width="512" height="512">
<path d="M0 0 C2.31650646 0.02399371 4.63188362 0.02047725 6.94848633 0.01391602 C8.44784205 0.01948336 9.94719304 0.02658726 11.4465332 0.03540039 C12.12579361 0.03448898 12.80505402 0.03357758 13.50489807 0.03263855 C18.04582867 0.09937806 21.91199274 0.95398392 26.22387695 2.33618164 C28.61953593 2.94103931 31.01537429 3.54518686 33.41137695 4.14868164 C39.3556756 5.68828685 44.92017321 7.68460295 50.5402832 10.18774414 C53.39094551 11.40767823 56.27192046 12.39120878 59.22387695 13.33618164 C59.22387695 13.99618164 59.22387695 14.65618164 59.22387695 15.33618164 C59.94188477 15.60172852 60.65989258 15.86727539 61.3996582 16.14086914 C76.04976957 22.34133121 90.79094385 34.61504946 97.22387695 49.33618164 C97.22387695 50.32618164 97.22387695 51.31618164 97.22387695 52.33618164 C97.88387695 52.66618164 98.54387695 52.99618164 99.22387695 53.33618164 C99.80511101 63.7983946 96.92946998 71.49154644 90.5246582 79.79321289 C84.57922373 86.36448257 76.42551454 91.07057548 68.22387695 94.33618164 C67.23387695 94.33618164 66.24387695 94.33618164 65.22387695 94.33618164 C64.89387695 94.99618164 64.56387695 95.65618164 64.22387695 96.33618164 C60.93354363 97.58023464 57.45528764 98.27445955 54.03637695 99.08618164 C52.41566284 99.47543823 52.41566284 99.47543823 50.76220703 99.87255859 C38.78887605 102.62391596 26.6749208 104.45988835 14.52587891 106.2434082 C-4.70324387 109.08643862 -23.10465493 113.24165346 -38.77612305 125.33618164 C-39.64881836 126.00262695 -40.52151367 126.66907227 -41.4206543 127.35571289 C-56.13011191 139.53451113 -63.51777947 158.96703067 -70.83862305 176.08618164 C-82.71179341 203.74905073 -82.71179341 203.74905073 -93.77612305 208.33618164 C-98.25817483 208.76992859 -100.73603965 208.80315786 -104.83862305 206.96118164 C-111.17706097 201.29704563 -115.0667422 194.16248103 -118.71362305 186.58618164 C-119.02033936 185.9605835 -119.32705566 185.33498535 -119.64306641 184.69042969 C-121.45429442 180.7628863 -122.27237627 177.65170015 -121.77612305 173.33618164 C-118.39777875 169.39477996 -114.27361258 168.44150467 -109.4519043 167.10571289 C-97.87281281 163.7756676 -88.29394601 158.1763914 -79.58862305 149.87524414 C-77.77612305 148.33618164 -77.77612305 148.33618164 -75.77612305 148.33618164 C-75.53506836 147.79219727 -75.29401367 147.24821289 -75.0456543 146.68774414 C-73.46884464 143.76700749 -71.51294652 141.32191642 -69.46362305 138.71118164 C-65.91807131 134.1231965 -63.1080487 129.50147693 -60.7487793 124.19946289 C-59.77612305 122.33618164 -59.77612305 122.33618164 -57.77612305 121.33618164 C-57.08250659 119.68054931 -56.42219865 118.0109379 -55.77612305 116.33618164 C-46.98572794 99.43633753 -34.8874395 81.65005116 -16.22143555 75.08618164 C-6.79566507 72.2553632 6.8181485 69.45852715 16.2746582 73.13305664 C17.23952148 73.72860352 17.23952148 73.72860352 18.22387695 74.33618164 C28.68265343 79.59531611 38.29516353 84.28456696 50.14575195 80.37133789 C53.88933196 78.67807121 56.62214083 76.98949515 59.41137695 73.96118164 C60.55940661 70.25216276 60.35274067 68.05479154 59.22387695 64.33618164 C57.37688945 62.38978121 55.38536396 60.95729689 53.22387695 59.33618164 C52.89387695 58.34618164 52.56387695 57.35618164 52.22387695 56.33618164 C50.00953755 55.2487547 50.00953755 55.2487547 47.22387695 54.33618164 C43.77860218 52.89543037 40.41284371 51.43444436 37.09887695 49.71118164 C34.34086306 48.39213152 32.20519009 47.89084455 29.22387695 47.33618164 C27.74091923 46.82624265 26.26208172 46.30424439 24.78637695 45.77368164 C21.12051039 44.50895768 18.12610289 44.14582916 14.22387695 44.33618164 C13.56387695 44.00618164 12.90387695 43.67618164 12.22387695 43.33618164 C10.6312563 43.18442615 9.03322839 43.08717839 7.43481445 43.01977539 C6.49379883 42.97788086 5.5527832 42.93598633 4.58325195 42.89282227 C3.10598633 42.83384766 3.10598633 42.83384766 1.59887695 42.77368164 C0.11000977 42.70890625 0.11000977 42.70890625 -1.40893555 42.64282227 C-3.86452143 42.53657095 -6.32021008 42.43453201 -8.77612305 42.33618164 C-9.27112305 43.32618164 -9.27112305 43.32618164 -9.77612305 44.33618164 C-11.6657994 44.57239119 -13.55673881 44.80139056 -15.4519043 44.98852539 C-18.6980555 45.47408414 -21.64334606 46.54292199 -24.7253418 47.64477539 C-26.77612305 48.33618164 -26.77612305 48.33618164 -29.77612305 48.89868164 C-30.43612305 49.04305664 -31.09612305 49.18743164 -31.77612305 49.33618164 C-32.27112305 50.32618164 -32.27112305 50.32618164 -32.77612305 51.33618164 C-34.54428298 52.23800234 -36.34187038 53.08242498 -38.15112305 53.89868164 C-48.12431784 58.77262107 -55.85025711 65.75589339 -62.77612305 74.33618164 C-63.39874023 75.0490332 -64.02135742 75.76188477 -64.6628418 76.49633789 C-72.07639121 85.22073101 -77.10106442 95.29529972 -82.44018555 105.35571289 C-97.70815421 133.93144527 -97.70815421 133.93144527 -110.77612305 139.64868164 C-114.18957753 140.43093163 -117.28552769 140.47580545 -120.77612305 140.33618164 C-120.77612305 139.67618164 -120.77612305 139.01618164 -120.77612305 138.33618164 C-121.67331055 137.99586914 -121.67331055 137.99586914 -122.58862305 137.64868164 C-125.57463672 135.85707344 -126.32403835 134.54134337 -127.77612305 131.33618164 C-128.27862797 127.81173723 -128.2987033 124.32963165 -128.27612305 120.77368164 C-128.27185303 119.75806152 -128.26758301 118.74244141 -128.26318359 117.69604492 C-127.93566122 102.82444609 -123.5732069 88.93403939 -117.77612305 75.33618164 C-117.35459961 74.21663086 -117.35459961 74.21663086 -116.92456055 73.07446289 C-114.04644121 65.79846962 -109.40143012 59.4919908 -104.97143555 53.0925293 C-104.17559183 51.92314619 -103.39928364 50.74022312 -102.64331055 49.54467773 C-101.73517335 48.11057774 -100.76134266 46.71846174 -99.77612305 45.33618164 C-99.11612305 45.33618164 -98.45612305 45.33618164 -97.77612305 45.33618164 C-97.49897461 44.74450195 -97.22182617 44.15282227 -96.9362793 43.54321289 C-93.63268699 37.25860126 -88.34404283 32.9895506 -82.72924805 28.81665039 C-80.68927803 27.34025024 -80.68927803 27.34025024 -78.77612305 25.33618164 C-67.3813504 17.39632123 -55.47810441 10.98099248 -42.33862305 6.52368164 C-41.52989746 6.24588867 -40.72117187 5.9680957 -39.88793945 5.68188477 C-26.69032902 1.4150467 -13.80549589 -0.15291602 0 0 Z " fill="#D1D1D1" transform="translate(259.776123046875,123.663818359375)"/>
<path d="M0 0 C2.56648146 0.27290074 5.12356966 0.51215399 7.6953125 0.71875 C8.44279755 0.78155151 9.19028259 0.84435303 9.9604187 0.90905762 C12.34836691 1.10912837 14.73665343 1.30474761 17.125 1.5 C18.70835985 1.63119082 20.29169351 1.76269809 21.875 1.89453125 C22.64504364 1.95855637 23.41508728 2.02258148 24.20846558 2.08854675 C26.46752273 2.2778734 28.72618686 2.47147512 30.98486328 2.6652832 C33.35838901 2.86808861 35.72733443 3.0468381 38.10498047 3.19995117 C43.40567865 3.58329718 47.17071989 4.62680463 51.875 7.3125 C52.94492187 7.90675781 54.01484375 8.50101562 55.1171875 9.11328125 C58.98732851 11.64617841 61.52041574 13.56124721 63 18 C65.31955114 34.3249422 54.48610257 49.81179276 45.17749023 62.22900391 C29.05390369 83.14842741 7.597616 100.31702146 -18 108 C-19.32 108 -20.64 108 -22 108 C-22.33 108.66 -22.66 109.32 -23 110 C-24.93017578 110.57836914 -24.93017578 110.57836914 -27.4453125 111.03515625 C-28.35796875 111.20466797 -29.270625 111.37417969 -30.2109375 111.54882812 C-31.17257812 111.71833984 -32.13421875 111.88785156 -33.125 112.0625 C-34.0634375 112.23587891 -35.001875 112.40925781 -35.96875 112.58789062 C-43.62744052 113.9876933 -51.0664328 115.18045323 -58.875 115.125 C-59.58043945 115.12089111 -60.28587891 115.11678223 -61.01269531 115.11254883 C-70.50324769 115.01091118 -78.83544585 113.44034438 -88 111 C-90.07341426 110.46885973 -92.14016009 109.97035075 -94.234375 109.52734375 C-110.12015806 105.80257164 -127.19110772 96.15563441 -139 85 C-139 84.34 -139 83.68 -139 83 C-137.98292969 82.88785156 -137.98292969 82.88785156 -136.9453125 82.7734375 C-124.54814616 81.02203727 -116.01773537 74.63400962 -108.37109375 64.93359375 C-104.89262737 60.1140319 -101.78278553 55.06500309 -98.63916016 50.02441406 C-84.36635922 27.17201988 -67.43621659 9.06894967 -40.375 2.5 C-32.76769065 0.8932838 -25.12186789 0.31426951 -17.375 -0.25 C-16.12895996 -0.34216797 -14.88291992 -0.43433594 -13.59912109 -0.52929688 C-4.30169838 -1.14379265 -4.30169838 -1.14379265 0 0 Z M-0.9375 30.9375 C-1.99227539 31.06801758 -1.99227539 31.06801758 -3.06835938 31.20117188 C-12.90795205 32.44610628 -25.72507279 34.72507279 -33 42 C-34.22114609 42.90673606 -35.45147381 43.80115509 -36.6875 44.6875 C-47.5442421 52.84958309 -57.4574365 65.03429112 -62 78 C-62.1624882 80.68795015 -62.1624882 80.68795015 -62 83 C-52.27907715 88.18449219 -39.8734695 84.00273411 -30 81 C-10.19502643 74.42759184 10.50286585 61.8942575 22 44 C23.27527397 41.33233507 24.15684529 38.84564716 25 36 C21.84666214 31.69999383 18.41404916 31.17687455 13.4375 30.296875 C8.56188949 29.70305064 3.89483487 30.31638859 -0.9375 30.9375 Z " fill="#D0D0D0" transform="translate(317,269)"/>
<path d="M0 0 C4.54781487 0.61419655 8.53314635 1.78933751 12.8125 3.4375 C13.95332031 3.86933594 15.09414062 4.30117188 16.26953125 4.74609375 C19 6 19 6 20 8 C12.54928441 6.93787671 6.56342244 4.65875889 0 1 C0 0.67 0 0.34 0 0 Z " fill="#9B9B9B" transform="translate(204,370)"/>
<path d="M0 0 C0.66 0.33 1.32 0.66 2 1 C0.76110404 2.48847937 -0.4915672 3.96550105 -1.75 5.4375 C-2.79414063 6.67306641 -2.79414063 6.67306641 -3.859375 7.93359375 C-6.01343015 10.01296451 -7.08310781 10.63867326 -10 11 C-8.55218207 7.55571735 -6.72305391 5.63869038 -3.875 3.25 C-3.15054688 2.63640625 -2.42609375 2.0228125 -1.6796875 1.390625 C-0.84824219 0.70226562 -0.84824219 0.70226562 0 0 Z " fill="#C3C3C3" transform="translate(174,155)"/>
<path d="M0 0 C2.94956528 1.36944102 5.52468811 2.87830409 8 5 C8 5.66 8 6.32 8 7 C4.59679258 5.98823563 3.24274669 5.35156418 1.1875 2.375 C0.795625 1.59125 0.40375 0.8075 0 0 Z " fill="#909090" transform="translate(150,324)"/>
<path d="" fill="#FFFFFF" transform="translate(0,0)"/>
</svg>
